<?xml version="1.0" encoding="UTF-8"?><svg id="Layer_2" xmlns="http://www.w3.org/2000/svg" viewBox="0 0 386.52 80.82"><defs><style>.cls-1{fill:#fff;}</style></defs><g id="Layer_1-2"><g><path class="cls-1" d="M119.23,15.21h-17.35v10.61h-7.14v15h7.14v23.06c0,6.22,2.45,16.94,17.45,16.94,5,0,9.18-.41,12.45-1.12l-1.12-14.59c-2.55,.31-4.9,.51-7.04,.51-2.96,0-4.39-1.53-4.39-4.49v-20.31h12.55v-15h-12.55V15.21Z"/><rect class="cls-1" x="67.76" y="25.82" width="17.35" height="54.19"/><path class="cls-1" d="M76.43,0c-6.12,0-10.41,4.29-10.41,10.51s4.29,10.61,10.41,10.61,10.41-4.18,10.41-10.61S82.55,0,76.43,0Z"/><path class="cls-1" d="M200.9,62.56l-8.16-30.72c-1.12-4.49-4.49-6.74-10-6.74s-8.78,2.25-10,6.74l-8.06,30.92-10.61-36.84h-16.74l13.88,45.92c1.94,5.72,7.04,8.98,12.86,8.98,7.04,0,11.43-3.16,13.16-9.49l5.51-20.21,5.51,20.21c1.84,6.33,6.22,9.49,13.16,9.49,5.82,0,10.92-3.27,12.86-8.98l13.88-45.92h-16.74l-10.51,36.64Z"/><path class="cls-1" d="M256.21,25.1c-8.27,0-14.9,2.55-20.1,7.76-5.2,5.2-7.76,11.84-7.76,20.1s2.55,14.9,7.76,20.1c5.2,5.2,11.84,7.76,20.1,7.76s15-2.55,20.1-7.76c5.2-5.2,7.76-11.84,7.76-20.1s-2.55-14.9-7.76-20.1c-5.1-5.2-11.84-7.76-20.1-7.76Zm0,41.33c-6.94,0-11.12-5.31-11.12-13.47s4.18-13.47,11.12-13.47,11.12,5.31,11.12,13.47-4.18,13.47-11.12,13.47Z"/><polygon class="cls-1" points="364.48 48.27 384.89 25.82 363.97 25.82 346.72 44.6 346.72 4.18 329.37 4.18 329.37 80.01 346.72 80.01 346.72 67.76 352.84 61.03 366.41 80.01 386.52 80.01 364.48 48.27"/><path class="cls-1" d="M40.46,40.66c-.7-5.91-5.6-10.49-11.56-10.49s-10.86,4.58-11.56,10.49V4.18H0V80.05H17.35V43.57c.7,5.91,5.6,10.49,11.56,10.49s10.86-4.58,11.56-10.49v36.48h17.35V4.18h-17.35V40.66Z"/><path class="cls-1" d="M305.22,25.1c-8.01,0-14.5,6.49-14.5,14.5v40.17h17.35V40.2h14.18v-15.1h-17.02Z"/></g></g></svg>