<svg width="57" height="70" viewBox="0 0 57 70" fill="none" xmlns="http://www.w3.org/2000/svg">
<path d="M14.28 63.064C13.928 63.288 13.592 63.3573 13.272 63.272C12.952 63.1867 12.68 62.968 12.456 62.616L7.496 54.36H3.016V61.656C3.016 62.552 2.568 63 1.672 63C0.775999 63 0.327999 62.552 0.327999 61.656V42.648C0.327999 41.752 0.775999 41.304 1.672 41.304H9.16C11.112 41.304 12.6053 41.8267 13.64 42.872C14.6853 43.9067 15.208 45.4 15.208 47.352V48.312C15.208 50.008 14.8133 51.3627 14.024 52.376C13.2347 53.3787 12.0933 54.0027 10.6 54.248L14.792 61.24C15.1973 61.9867 15.0267 62.5947 14.28 63.064ZM3.016 51.672H9.16C10.376 51.672 11.24 51.416 11.752 50.904C12.264 50.392 12.52 49.528 12.52 48.312V47.352C12.52 46.1467 12.264 45.288 11.752 44.776C11.24 44.2533 10.376 43.992 9.16 43.992H3.016V51.672Z" fill="#9DA69B"/>
<path d="M19.048 55.992V56.76C19.048 58.136 19.2987 59.0747 19.8 59.576C20.3013 60.0667 21.2453 60.312 22.632 60.312H25.256C26.344 60.312 27.1493 60.2107 27.672 60.008C28.1947 59.8053 28.5413 59.448 28.712 58.936C28.8293 58.5307 28.9893 58.2213 29.192 58.008C29.4053 57.7947 29.7253 57.688 30.152 57.688C30.6 57.688 30.9413 57.8053 31.176 58.04C31.4107 58.2747 31.4853 58.616 31.4 59.064C31.1653 60.3867 30.536 61.3733 29.512 62.024C28.488 62.6747 27.0693 63 25.256 63H22.632C20.5093 63 18.9307 62.488 17.896 61.464C16.872 60.44 16.36 58.872 16.36 56.76V53.048C16.36 50.8827 16.872 49.2933 17.896 48.28C18.9307 47.256 20.5093 46.7547 22.632 46.776H25.256C27.3893 46.776 28.968 47.288 29.992 48.312C31.016 49.3253 31.528 50.904 31.528 53.048V54.648C31.528 55.544 31.08 55.992 30.184 55.992H19.048ZM22.632 49.464C21.2453 49.4427 20.3013 49.6827 19.8 50.184C19.2987 50.6853 19.048 51.64 19.048 53.048V53.304H28.84V53.048C28.84 51.6507 28.5893 50.7067 28.088 50.216C27.5973 49.7147 26.6533 49.464 25.256 49.464H22.632Z" fill="#9DA69B"/>
<path d="M39.0412 63C37.4092 63 36.1932 62.6 35.3932 61.8C34.6039 60.9893 34.2092 59.768 34.2092 58.136V41.816C34.2092 40.92 34.6572 40.472 35.5532 40.472C36.4492 40.472 36.8972 40.92 36.8972 41.816V58.136C36.8972 59 37.0359 59.5813 37.3132 59.88C37.6012 60.168 38.1772 60.312 39.0412 60.312C39.9586 60.312 40.4172 60.76 40.4172 61.656C40.4492 62.552 39.9906 63 39.0412 63Z" fill="#9DA69B"/>
<path d="M42.3533 69.4C41.4573 69.4 41.0093 68.952 41.0093 68.056V48.12C41.0093 47.224 41.4573 46.776 42.3533 46.776C43.2493 46.776 43.6973 47.224 43.6973 48.12V48.52C44.2733 47.944 44.9826 47.512 45.8253 47.224C46.6786 46.9253 47.6333 46.776 48.6893 46.776H49.9053C52.0386 46.776 53.6173 47.288 54.6413 48.312C55.6653 49.336 56.1772 50.9147 56.1772 53.048V56.728C56.1772 58.8507 55.6653 60.4293 54.6413 61.464C53.6173 62.488 52.0386 63 49.9053 63H43.6973V68.056C43.6973 68.952 43.2493 69.4 42.3533 69.4ZM43.6973 60.312H49.9053C51.3026 60.312 52.2466 60.0613 52.7373 59.56C53.2386 59.0587 53.4893 58.1147 53.4893 56.728V53.048C53.4893 51.6507 53.2386 50.7067 52.7373 50.216C52.2466 49.7147 51.3026 49.464 49.9053 49.464H48.6893C47.3559 49.464 46.2039 49.624 45.2332 49.944C44.2626 50.264 43.7506 50.7707 43.6973 51.464V60.312Z" fill="#9DA69B"/>
<path d="M24.2745 0.0196964C22.8802 0.121026 21.6019 0.418875 20.3893 0.919384C17.7512 2.00638 15.5549 4.01762 14.2734 6.52017C13.3711 8.2827 12.9512 10.1466 13.0045 12.1424C13.0484 13.6685 13.3523 15.0564 13.9413 16.4259C14.0948 16.7821 14.4363 17.4515 14.5836 17.6941C14.6619 17.82 14.6901 17.8968 14.6776 17.9551C14.6713 18.0012 14.5491 18.4464 14.4081 18.9438C14.0886 20.0646 13.8066 21.0687 13.5747 21.8916C13.4776 22.2386 13.3366 22.7391 13.2583 23.0093C13.18 23.2765 13.1236 23.5006 13.1298 23.5098C13.1392 23.516 13.3679 23.4607 13.6405 23.3839C14.145 23.2458 15.6269 22.8435 15.9371 22.7637C16.028 22.7391 16.3256 22.6593 16.5951 22.5825C17.5789 22.3092 18.7162 22.0052 18.8008 21.9899C18.8635 21.9807 18.9387 22.0083 19.0672 22.0851C19.1643 22.1434 19.4463 22.2908 19.6906 22.4105C21.0786 23.0892 22.5763 23.4914 24.1805 23.6112C24.5126 23.6357 24.6128 23.6541 24.6536 23.6971C24.6786 23.7248 24.7413 23.8814 24.7883 24.041C24.898 24.4126 25.1956 25.1403 25.4055 25.5518C25.8974 26.5129 26.4959 27.3204 27.3136 28.1249C28.9397 29.7278 30.9261 30.6858 33.2666 31.0021C33.8149 31.0758 35.2186 31.0758 35.7888 31.0021C37.0765 30.8332 38.1105 30.5108 39.276 29.9182L39.7898 29.6572L40.075 29.7339C40.2347 29.7769 40.5387 29.8598 40.7549 29.9182C41.7919 30.2007 42.3716 30.3573 43.1047 30.5538C43.5434 30.6735 44.0509 30.8117 44.2295 30.8609C44.4081 30.9131 44.5585 30.9468 44.5679 30.9407C44.5742 30.9315 44.5178 30.7073 44.4394 30.4402C44.3611 30.17 44.1982 29.5927 44.076 29.1536C43.9507 28.7145 43.7909 28.1403 43.7157 27.8793C43.6405 27.6183 43.5089 27.1424 43.418 26.8261L43.2582 26.2488L43.3366 26.1045C43.512 25.7944 43.8285 25.171 43.8911 25.0175C43.9256 24.9284 43.9851 24.7841 44.0196 24.7012C44.3016 24.0011 44.5021 23.2273 44.6274 22.3369C44.7058 21.7841 44.7089 20.4177 44.6306 19.865C44.4426 18.517 44.0071 17.2274 43.3961 16.211C43.3115 16.0667 43.2144 15.9039 43.1799 15.8456C43.0797 15.6736 42.641 15.0749 42.3904 14.7678C42.0896 14.4024 41.3314 13.6593 40.9428 13.3523C40.1564 12.7289 39.3857 12.2745 38.4708 11.8907C38.1512 11.7586 37.5622 11.5529 37.2896 11.4853C37.2175 11.4669 37.1486 11.427 37.1392 11.3994C37.1267 11.3717 37.1047 11.1691 37.0859 10.9511C36.8697 8.15066 35.7105 5.62662 33.6927 3.56625C33.3731 3.24076 32.6337 2.61129 32.2013 2.29809C30.7006 1.21109 28.9397 0.474146 27.11 0.170156C26.2703 0.0289082 25.0327 -0.0355745 24.2745 0.0196964ZM26.17 1.5335C28.1032 1.75152 29.8327 2.41784 31.3554 3.52633C31.841 3.87945 32.1731 4.17423 32.7653 4.77606C33.9058 5.93675 34.7987 7.5089 35.2405 9.13325C35.5037 10.0944 35.5977 10.8067 35.5977 11.82C35.5977 12.5723 35.5726 12.8702 35.4567 13.5457C34.9836 16.3277 33.3105 18.8517 30.9136 20.4116C29.4316 21.3727 27.9935 21.8855 26.1387 22.1096C25.722 22.1618 24.4123 22.1618 23.9768 22.1127C22.2097 21.907 20.5742 21.3328 19.1925 20.4269C19.1298 20.384 19.064 20.3594 19.0484 20.3686C19.0327 20.3778 18.6066 20.4976 18.099 20.6327C17.5914 20.7708 16.8959 20.9582 16.5512 21.0533C15.6238 21.3051 15.5737 21.3174 15.486 21.2959C15.439 21.2836 15.4014 21.2468 15.3888 21.2007C15.3669 21.1117 15.3669 21.1086 15.7147 19.8804C15.8525 19.3891 16.0468 18.7074 16.1439 18.3604C16.241 18.0165 16.3288 17.7217 16.335 17.7095C16.3444 17.6972 16.2379 17.5068 16.1032 17.2919C15.2604 15.9653 14.7403 14.4792 14.5585 12.8947C14.5053 12.4403 14.5053 11.1967 14.5585 10.7607C14.8092 8.62967 15.6395 6.72283 16.993 5.15682C17.2405 4.87125 18.0489 4.0729 18.2306 3.93779C18.2933 3.88866 18.4405 3.77505 18.5596 3.67986C19.5246 2.91221 20.7779 2.28273 22.1126 1.89277C22.7893 1.69318 23.6572 1.54579 24.4624 1.49052C24.7507 1.47209 25.8692 1.49973 26.17 1.5335ZM37.7376 13.2018C39.0066 13.6992 40.241 14.559 41.0494 15.5048C41.4097 15.9285 41.4849 16.0268 41.7167 16.3645C43.3178 18.7135 43.6342 21.6306 42.569 24.2498C42.3684 24.7442 42.1804 25.1065 41.8797 25.5825C41.7418 25.7944 41.6321 25.997 41.6321 26.0277C41.6321 26.0615 41.6509 26.1567 41.676 26.2396C41.7011 26.3225 41.8013 26.6725 41.8985 27.0195C41.9956 27.3665 42.1303 27.8425 42.1992 28.0758C42.3371 28.5579 42.3434 28.604 42.2682 28.6838C42.1992 28.7606 42.146 28.7544 41.6948 28.6316C41.4786 28.5733 40.9052 28.4167 40.4165 28.2846L39.5329 28.042L39.1319 28.2846C38.1418 28.8895 37.1423 29.2641 36.0081 29.4607C35.1716 29.605 34.5418 29.6295 33.7178 29.5528C32.4175 29.43 31.1831 29.0369 30.0959 28.3982C28.4102 27.4064 27.1632 25.9725 26.4551 24.2191C26.2295 23.6541 26.2515 23.6019 26.734 23.5313C28.9491 23.212 30.9073 22.3768 32.6337 21.0134C33.3418 20.4515 33.9246 19.8742 34.5136 19.1465C35.7418 17.6327 36.5533 15.8947 36.9136 14.0002C36.9575 13.7729 37.0013 13.4966 37.0139 13.3891C37.0389 13.165 37.1235 13.0483 37.2614 13.0483C37.3053 13.0483 37.5214 13.1189 37.7376 13.2018Z" fill="#8B8AA6"/>
<path d="M22.4333 14.9982C22.4333 14.8821 22.3908 14.7817 22.3059 14.6969C22.221 14.6121 22.1205 14.5697 22.0043 14.5697C21.8881 14.5697 21.7875 14.6121 21.7026 14.6969C21.6177 14.7817 21.5753 14.8821 21.5753 14.9982C21.5753 15.1142 21.6177 15.2146 21.7026 15.2995C21.7875 15.3843 21.8881 15.4267 22.0043 15.4267C22.1205 15.4267 22.221 15.3843 22.3059 15.2995C22.3908 15.2146 22.4333 15.1142 22.4333 14.9982ZM26.7502 12.1862L22.1785 16.7523C22.0132 16.9174 21.8121 17 21.5753 17C21.3429 17 21.1395 16.9174 20.9653 16.7523L20.2547 16.0292C20.0849 15.8685 20 15.6677 20 15.4267C20 15.1901 20.0849 14.987 20.2547 14.8174L24.8196 10.2581C24.9939 10.6955 25.2497 11.0827 25.5871 11.4197C25.9245 11.7566 26.3122 12.0122 26.7502 12.1862ZM31 9.27389C31 9.44796 30.9486 9.68452 30.8458 9.98357C30.6358 10.5817 30.2682 11.0671 29.7431 11.4397C29.2181 11.8124 28.6405 11.9988 28.0104 11.9988C27.1836 11.9988 26.4764 11.7053 25.8888 11.1184C25.3011 10.5314 25.0073 9.82512 25.0073 8.99939C25.0073 8.17367 25.3011 7.46734 25.8888 6.8804C26.4764 6.29347 27.1836 6 28.0104 6C28.2696 6 28.541 6.03682 28.8248 6.11047C29.1086 6.18412 29.3488 6.28789 29.5454 6.42179C29.6169 6.47089 29.6526 6.53337 29.6526 6.60925C29.6526 6.68513 29.6169 6.74762 29.5454 6.79671L27.5814 7.92818V9.42788L28.8751 10.1442C28.8974 10.1309 29.0739 10.0226 29.4046 9.81954C29.7353 9.61645 30.0381 9.43569 30.3129 9.27724C30.5878 9.11879 30.7453 9.03956 30.7855 9.03956C30.8525 9.03956 30.905 9.06188 30.943 9.10651C30.981 9.15115 31 9.20694 31 9.27389Z" fill="#9DA69B"/>
</svg>
