<svg width="32" height="32" viewBox="0 0 32 32" fill="none" xmlns="http://www.w3.org/2000/svg">
<path d="M11.2745 0.0196964C9.8802 0.121026 8.60188 0.418875 7.38934 0.919384C4.75123 2.00638 2.55488 4.01762 1.27342 6.52017C0.371075 8.2827 -0.0487679 10.1466 0.00449575 12.1424C0.0483599 13.6685 0.352276 15.0564 0.941309 16.4259C1.09483 16.7821 1.43635 17.4515 1.58361 17.6941C1.66194 17.82 1.69013 17.8968 1.6776 17.9551C1.67133 18.0012 1.54914 18.4464 1.40815 18.9438C1.08857 20.0646 0.806584 21.0687 0.57473 21.8916C0.477602 22.2386 0.33661 22.7391 0.258281 23.0093C0.179952 23.2765 0.123556 23.5006 0.129822 23.5098C0.139221 23.516 0.367942 23.4607 0.640526 23.3839C1.14496 23.2458 2.62695 22.8435 2.93713 22.7637C3.02799 22.7391 3.32564 22.6593 3.59509 22.5825C4.5789 22.3092 5.71624 22.0052 5.80083 21.9899C5.8635 21.9807 5.93869 22.0083 6.06715 22.0851C6.16428 22.1434 6.44626 22.2908 6.69065 22.4105C8.07864 23.0892 9.57629 23.4914 11.1805 23.6112C11.5126 23.6357 11.6128 23.6541 11.6536 23.6971C11.6786 23.7248 11.7413 23.8814 11.7883 24.041C11.898 24.4126 12.1956 25.1403 12.4055 25.5518C12.8974 26.5129 13.4959 27.3204 14.3136 28.1249C15.9397 29.7278 17.9261 30.6858 20.2666 31.0021C20.8149 31.0758 22.2186 31.0758 22.7888 31.0021C24.0765 30.8332 25.1105 30.5108 26.276 29.9182L26.7898 29.6572L27.075 29.7339C27.2348 29.7769 27.5387 29.8598 27.7549 29.9182C28.7919 30.2007 29.3716 30.3573 30.1047 30.5538C30.5434 30.6735 31.0509 30.8117 31.2295 30.8609C31.4081 30.9131 31.5585 30.9468 31.5679 30.9407C31.5742 30.9315 31.5178 30.7073 31.4394 30.4402C31.3611 30.17 31.1982 29.5927 31.076 29.1536C30.9507 28.7145 30.7909 28.1403 30.7157 27.8793C30.6405 27.6183 30.5089 27.1424 30.418 26.8261L30.2582 26.2488L30.3366 26.1045C30.512 25.7944 30.8285 25.171 30.8911 25.0175C30.9256 24.9284 30.9851 24.7841 31.0196 24.7012C31.3016 24.0011 31.5021 23.2273 31.6274 22.3369C31.7058 21.7841 31.7089 20.4177 31.6306 19.865C31.4426 18.517 31.0071 17.2274 30.3961 16.211C30.3115 16.0667 30.2144 15.9039 30.1799 15.8456C30.0797 15.6736 29.641 15.0749 29.3904 14.7678C29.0896 14.4024 28.3314 13.6593 27.9428 13.3523C27.1564 12.7289 26.3857 12.2745 25.4708 11.8907C25.1512 11.7586 24.5622 11.5529 24.2896 11.4853C24.2175 11.4669 24.1486 11.427 24.1392 11.3994C24.1267 11.3717 24.1047 11.1691 24.0859 10.9511C23.8697 8.15066 22.7105 5.62662 20.6927 3.56625C20.3731 3.24076 19.6337 2.61129 19.2013 2.29809C17.7006 1.21109 15.9397 0.474146 14.11 0.170156C13.2703 0.0289082 12.0327 -0.0355745 11.2745 0.0196964ZM13.17 1.5335C15.1032 1.75152 16.8327 2.41784 18.3554 3.52633C18.841 3.87945 19.1731 4.17423 19.7653 4.77606C20.9058 5.93675 21.7987 7.5089 22.2405 9.13325C22.5037 10.0944 22.5977 10.8067 22.5977 11.82C22.5977 12.5723 22.5726 12.8702 22.4567 13.5457C21.9836 16.3277 20.3105 18.8517 17.9136 20.4116C16.4316 21.3727 14.9935 21.8855 13.1387 22.1096C12.722 22.1618 11.4123 22.1618 10.9768 22.1127C9.20971 21.907 7.5742 21.3328 6.19248 20.4269C6.12982 20.384 6.06402 20.3594 6.04835 20.3686C6.03269 20.3778 5.60658 20.4976 5.09901 20.6327C4.59144 20.7708 3.89588 20.9582 3.55123 21.0533C2.62381 21.3051 2.57368 21.3174 2.48596 21.2959C2.43896 21.2836 2.40136 21.2468 2.38883 21.2007C2.3669 21.1117 2.3669 21.1086 2.71468 19.8804C2.85253 19.3891 3.04679 18.7074 3.14392 18.3604C3.24105 18.0165 3.32877 17.7217 3.33504 17.7095C3.34444 17.6972 3.23791 17.5068 3.10319 17.2919C2.26037 15.9653 1.74026 14.4792 1.55854 12.8947C1.50528 12.4403 1.50528 11.1967 1.55854 10.7607C1.80919 8.62967 2.63948 6.72283 3.993 5.15682C4.24052 4.87125 5.04888 4.0729 5.2306 3.93779C5.29326 3.88866 5.44052 3.77505 5.55958 3.67986C6.52459 2.91221 7.77785 2.28273 9.11258 1.89277C9.78934 1.69318 10.6572 1.54579 11.4624 1.49052C11.7507 1.47209 12.8692 1.49973 13.17 1.5335ZM24.7376 13.2018C26.0066 13.6992 27.241 14.559 28.0494 15.5048C28.4097 15.9285 28.4849 16.0268 28.7167 16.3645C30.3178 18.7135 30.6342 21.6306 29.569 24.2498C29.3684 24.7442 29.1804 25.1065 28.8797 25.5825C28.7418 25.7944 28.6321 25.997 28.6321 26.0277C28.6321 26.0615 28.6509 26.1567 28.676 26.2396C28.7011 26.3225 28.8013 26.6725 28.8985 27.0195C28.9956 27.3665 29.1303 27.8425 29.1992 28.0758C29.3371 28.5579 29.3434 28.604 29.2682 28.6838C29.1992 28.7606 29.146 28.7544 28.6948 28.6316C28.4786 28.5733 27.9052 28.4167 27.4165 28.2846L26.5329 28.042L26.1319 28.2846C25.1418 28.8895 24.1423 29.2641 23.0081 29.4607C22.1716 29.605 21.5418 29.6295 20.7178 29.5528C19.4175 29.43 18.1831 29.0369 17.0959 28.3982C15.4102 27.4064 14.1632 25.9725 13.4551 24.2191C13.2295 23.6541 13.2515 23.6019 13.734 23.5313C15.9491 23.212 17.9073 22.3768 19.6337 21.0134C20.3418 20.4515 20.9246 19.8742 21.5136 19.1465C22.7418 17.6327 23.5533 15.8947 23.9136 14.0002C23.9575 13.7729 24.0013 13.4966 24.0139 13.3891C24.0389 13.165 24.1235 13.0483 24.2614 13.0483C24.3053 13.0483 24.5214 13.1189 24.7376 13.2018Z" fill="#8B8AA6"/>
<path d="M9.43327 14.9982C9.43327 14.8821 9.39082 14.7817 9.30591 14.6969C9.221 14.6121 9.12046 14.5697 9.00427 14.5697C8.88808 14.5697 8.78753 14.6121 8.70262 14.6969C8.61771 14.7817 8.57526 14.8821 8.57526 14.9982C8.57526 15.1142 8.61771 15.2146 8.70262 15.2995C8.78753 15.3843 8.88808 15.4267 9.00427 15.4267C9.12046 15.4267 9.221 15.3843 9.30591 15.2995C9.39082 15.2146 9.43327 15.1142 9.43327 14.9982ZM13.7502 12.1862L9.17855 16.7523C9.0132 16.9174 8.81211 17 8.57526 17C8.34288 17 8.13955 16.9174 7.96527 16.7523L7.25472 16.0292C7.08491 15.8685 7 15.6677 7 15.4267C7 15.1901 7.08491 14.987 7.25472 14.8174L11.8196 10.2581C11.9939 10.6955 12.2497 11.0827 12.5871 11.4197C12.9245 11.7566 13.3122 12.0122 13.7502 12.1862ZM18 9.27389C18 9.44796 17.9486 9.68452 17.8458 9.98357C17.6358 10.5817 17.2682 11.0671 16.7431 11.4397C16.2181 11.8124 15.6405 11.9988 15.0104 11.9988C14.1836 11.9988 13.4764 11.7053 12.8888 11.1184C12.3011 10.5314 12.0073 9.82512 12.0073 8.99939C12.0073 8.17367 12.3011 7.46734 12.8888 6.8804C13.4764 6.29347 14.1836 6 15.0104 6C15.2696 6 15.541 6.03682 15.8248 6.11047C16.1086 6.18412 16.3488 6.28789 16.5454 6.42179C16.6169 6.47089 16.6527 6.53337 16.6527 6.60925C16.6527 6.68513 16.6169 6.74762 16.5454 6.79671L14.5814 7.92818V9.42788L15.8751 10.1442C15.8974 10.1309 16.0739 10.0226 16.4046 9.81954C16.7353 9.61645 17.0381 9.43569 17.3129 9.27724C17.5878 9.11879 17.7453 9.03956 17.7855 9.03956C17.8525 9.03956 17.905 9.06188 17.943 9.10651C17.981 9.15115 18 9.20694 18 9.27389Z" fill="#9DA69B"/>
</svg>
