<?xml version="1.0" encoding="UTF-8"?><svg id="Layer_2" xmlns="http://www.w3.org/2000/svg" viewBox="0 0 250.42 51.67"><defs><style>.cls-1{fill:#f1edff;}</style></defs><g id="INFO"><g><path class="cls-1" d="M44.39,9.27V51.67h9.47v-12.9c2.25,2.91,5.58,4.29,9.67,4.29,8.88,0,15.04-7.42,15.04-17.22V9.27H44.39Zm24.58,16.56c0,5.5-2.78,9.8-7.62,9.8s-7.49-4.17-7.49-9.8v-8.81h15.1v8.81Z"/><path class="cls-1" d="M250.42,25.9c0-10.2-6.09-17.36-16.36-17.36s-16.69,7.15-16.69,17.49,6.29,17.03,16.76,17.03c7.68,0,14.04-3.91,15.5-10.4h-9.34c-.99,2.32-2.98,3.51-5.9,3.51-4.64,0-7.15-2.58-7.68-7.82h23.65l.07-2.45Zm-23.58-3.38c.86-4.17,3.05-7.02,7.22-7.02s6.29,2.78,6.82,7.02h-14.04Z"/><path class="cls-1" d="M200.13,43.06c-10.14,0-16.83-6.69-16.83-17.22s6.36-17.29,16.83-17.29c8.61,0,14.71,4.5,15.7,12.45h-9.54c-.79-3.25-2.58-4.9-6.29-4.9-4.7,0-7.15,4.04-7.15,9.67s2.32,9.8,7.22,9.8c3.51,0,5.3-1.59,6.23-4.97h9.47c-1.13,7.88-6.89,12.45-15.63,12.45Z"/><path class="cls-1" d="M165.75,8.55c-8.55,0-14.38,3.31-15.37,10.93h9.54c.66-2.91,2.78-4.37,5.9-4.37s5.5,1.85,5.5,5.17v1.66l-9.61,.99c-7.09,.6-11.86,3.64-11.86,10.27,0,6.23,5.1,9.87,11.92,9.87,4.5,0,7.95-1.59,10.47-4.9v4.17h8.41V20.93c0-8.81-5.96-12.39-14.91-12.39Zm5.43,21c0,4.57-2.38,7.55-6.82,7.55-3.05,0-5.1-1.85-5.1-4.37s1.99-4.11,4.7-4.44l7.22-.93v2.19Z"/><path class="cls-1" d="M146.21,16.56c-1.32-2.72-3.11-4.7-5.3-5.96-2.25-1.39-4.77-2.05-7.35-2.05-4.97,0-8.68,1.99-11,5.9v-5.17h-8.48V51.67h9.41v-12.92c2.32,2.91,5.63,4.31,9.67,4.31,2.58,0,5.17-.66,7.42-2.05,2.32-1.32,4.11-3.31,5.56-5.96,1.32-2.58,2.05-5.63,2.05-9.21s-.66-6.76-1.99-9.27Zm-9.74,16.36c-1.39,1.79-3.18,2.72-5.43,2.72s-4.04-.93-5.5-2.65c-1.32-1.79-2.05-4.11-2.05-7.15s.73-5.3,2.05-7.09c1.46-1.79,3.31-2.72,5.5-2.72s4.04,.93,5.43,2.72c1.39,1.79,2.19,4.17,2.19,7.09s-.79,5.37-2.19,7.09Z"/><path class="cls-1" d="M96.26,43.06c-8.21,0-14.38-2.78-15.77-10.4h9.14c.73,2.65,2.91,4.04,6.43,4.04,3.05,0,5.63-.79,5.63-3.44,0-1.72-1.26-2.91-3.64-3.31l-7.09-1.32c-5.83-1.13-9.87-3.64-9.87-9.61,0-6.76,6.36-10.47,14.24-10.47s14.04,3.51,15.24,10.93h-9.21c-.2-1.46-.86-2.52-1.92-3.31-1.06-.86-2.52-1.26-4.24-1.26s-2.91,.33-3.78,1.06c-.93,.66-1.39,1.46-1.39,2.45,0,.79,.26,1.52,.86,1.99,.6,.53,1.66,.86,3.11,1.13l7.09,1.26c6.09,1.06,10,3.64,10,9.87,0,6.82-6.43,10.4-14.84,10.4Z"/><rect class="cls-1" x="29.48" y="9.27" width="9.47" height="33.06"/><path class="cls-1" d="M14.51,17.03v13.32c0,2.72,1.19,4.44,4.31,4.44,1.13,0,5.1-.07,5.76-.2v7.62c-.79,.2-3.58,.73-8.15,.53-7.55-.33-11.39-4.04-11.39-12.06v-13.65H0v-7.75H5.03V0H14.51V9.27h10.07v7.75H14.51Z"/></g></g></svg>